<svg id="Group_27_copy_2" data-name="Group 27 copy 2" xmlns="http://www.w3.org/2000/svg" width="64" height="64" viewBox="0 0 64 64">
  <metadata><?xpacket begin="﻿" id="W5M0MpCehiHzreSzNTczkc9d"?>
<x:xmpmeta xmlns:x="adobe:ns:meta/" x:xmptk="Adobe XMP Core 5.6-c138 79.159824, 2016/09/14-01:09:01        ">
   <rdf:RDF xmlns:rdf="http://www.w3.org/1999/02/22-rdf-syntax-ns#">
      <rdf:Description rdf:about=""/>
   </rdf:RDF>
</x:xmpmeta>
                                                                                                    
                                                                                                    
                                                                                                    
                                                                                                    
                                                                                                    
                                                                                                    
                                                                                                    
                                                                                                    
                                                                                                    
                                                                                                    
                                                                                                    
                                                                                                    
                                                                                                    
                                                                                                    
                                                                                                    
                                                                                                    
                                                                                                    
                                                                                                    
                                                                                                    
                                                                                                    
                           
<?xpacket end="w"?></metadata>
<defs>
    <style>
      .cls-1 {
        fill: #fff;
      }

      .cls-2, .cls-3, .cls-4 {
        fill-rule: evenodd;
      }

      .cls-3, .cls-4 {
        fill: #f1303d;
      }

      .cls-4 {
        stroke: #e42f3a;
        stroke-linejoin: round;
        stroke-width: 1px;
      }
    </style>
  </defs>
  <circle id="Globe_copy" data-name="Globe copy" class="cls-1" cx="32" cy="32" r="32"/>
  <path id="Globe" class="cls-2" d="M1500,2300a32,32,0,1,0,32,32A32,32,0,0,0,1500,2300Zm17.97,31a39.854,39.854,0,0,0-3.61-15.67,39.409,39.409,0,0,0,7.51-3.85,29.8,29.8,0,0,1,8.1,19.52h-12Zm-16.64,30.97H1501v-11.93a38.1,38.1,0,0,1,9.61,1.46A38.406,38.406,0,0,1,1501.33,2361.97Zm11.22-9.83a37.875,37.875,0,0,1,6.52,3.02,29.929,29.929,0,0,1-14.18,6.44A40.46,40.46,0,0,0,1512.55,2352.14Zm-23.16-.64a38.1,38.1,0,0,1,9.61-1.46v11.93h-0.33A38.406,38.406,0,0,1,1489.39,2351.5Zm5.72,10.1a29.929,29.929,0,0,1-14.18-6.44,37.875,37.875,0,0,1,6.52-3.02A40.208,40.208,0,0,0,1495.11,2361.6Zm-25.08-30.6a29.8,29.8,0,0,1,8.1-19.52,39.409,39.409,0,0,0,7.51,3.85,39.854,39.854,0,0,0-3.61,15.67h-12Zm41.54-16.8a37.617,37.617,0,0,1-10.57,1.76v-13.93h0.33A38.071,38.071,0,0,1,1511.57,2314.2Zm-6.68-11.8a29.867,29.867,0,0,1,15.52,7.63,37.614,37.614,0,0,1-6.94,3.5A40.049,40.049,0,0,0,1504.89,2302.4Zm-5.89-.37v13.93a37.617,37.617,0,0,1-10.57-1.76,38.071,38.071,0,0,1,10.24-12.17H1499Zm-12.47,11.5a38.019,38.019,0,0,1-6.95-3.5,29.935,29.935,0,0,1,15.53-7.63A40.049,40.049,0,0,0,1486.53,2313.53Zm1,2.48a39.859,39.859,0,0,0,11.47,1.97V2331h-14.97A37.729,37.729,0,0,1,1487.53,2316.01ZM1499,2333v15.04a39.631,39.631,0,0,0-10.62,1.69,37.88,37.88,0,0,1-4.35-16.73H1499Zm2,15.04V2333h14.97a37.88,37.88,0,0,1-4.35,16.73A39.631,39.631,0,0,0,1501,2348.04Zm0-17.04v-13.02a39.859,39.859,0,0,0,11.47-1.97,37.729,37.729,0,0,1,3.5,14.99H1501Zm-30.97,2h12a39.682,39.682,0,0,0,4.45,17.37,39.055,39.055,0,0,0-7.11,3.4A29.889,29.889,0,0,1,1470.03,2333Zm50.6,20.77a39.055,39.055,0,0,0-7.11-3.4,39.682,39.682,0,0,0,4.45-17.37h12A29.889,29.889,0,0,1,1520.63,2353.77Z" transform="translate(-1468 -2300)"/>
  <path id="Color_Fill_3" data-name="Color Fill 3" class="cls-3" d="M1476,2356a21.608,21.608,0,0,1,6-4,17.078,17.078,0,0,0,4-2,38.017,38.017,0,0,1-4-17v-2h17v-15a65.709,65.709,0,0,0,8-1c4.55-.84,4-1,4-1s-0.3.44,3-1a95.831,95.831,0,0,0,9-5l2,2a92.532,92.532,0,0,1-14,7c-7.08,2.68-10,1-10,1v15h-17c0,9.78,4.93,17.31,6,19s-1,0-1,0l-4,1-8,5Z" transform="translate(-1468 -2300)"/>
  <path id="Color_Fill_3_copy" data-name="Color Fill 3 copy" class="cls-4" d="M1476,2356a21.608,21.608,0,0,1,6-4,17.078,17.078,0,0,0,4-2,38.017,38.017,0,0,1-4-17v-2h17v-15a65.709,65.709,0,0,0,8-1c4.55-.84,4-1,4-1s-0.3.44,3-1a95.831,95.831,0,0,0,9-5l2,2a92.532,92.532,0,0,1-14,7c-7.08,2.68-10,1-10,1v15h-17c0,9.78,4.93,17.31,6,19s-1,0-1,0l-4,1-8,5Z" transform="translate(-1468 -2300)"/>
</svg>
