<svg xmlns="http://www.w3.org/2000/svg" width="64" height="64" viewBox="0 0 64 64">
  <metadata><?xpacket begin="﻿" id="W5M0MpCehiHzreSzNTczkc9d"?>
<x:xmpmeta xmlns:x="adobe:ns:meta/" x:xmptk="Adobe XMP Core 5.6-c138 79.159824, 2016/09/14-01:09:01        ">
   <rdf:RDF xmlns:rdf="http://www.w3.org/1999/02/22-rdf-syntax-ns#">
      <rdf:Description rdf:about=""/>
   </rdf:RDF>
</x:xmpmeta>
                                                                                                    
                                                                                                    
                                                                                                    
                                                                                                    
                                                                                                    
                                                                                                    
                                                                                                    
                                                                                                    
                                                                                                    
                                                                                                    
                                                                                                    
                                                                                                    
                                                                                                    
                                                                                                    
                                                                                                    
                                                                                                    
                                                                                                    
                                                                                                    
                                                                                                    
                                                                                                    
                           
<?xpacket end="w"?></metadata>
<defs>
    <style>
      .cls-1 {
        fill: #fff;
        fill-rule: evenodd;
      }
    </style>
  </defs>
  <path id="Clock" class="cls-1" d="M1167,462a32,32,0,1,0,32,32A32,32,0,0,0,1167,462Zm0,62a30,30,0,1,1,30-30A30,30,0,0,1,1167,524Zm1-30a1,1,0,1,0-1,1A1,1,0,0,0,1168,494Zm3.93,0.688A5.189,5.189,0,0,0,1172,494a4.97,4.97,0,0,0-2-3.978V476a3,3,0,0,0-6,0v14.022a4.985,4.985,0,0,0,3,8.978,5.04,5.04,0,0,0,.69-0.07l8.5,8.506a3,3,0,0,0,4.24-4.244ZM1166,476a1,1,0,1,1,2,0v13.1a5,5,0,0,0-2,0V476Zm-2,18a3,3,0,1,1,3,3A3,3,0,0,1,1164,494Zm15.02,12.02a1,1,0,0,1-1.41,0l-7.86-7.853a4.894,4.894,0,0,0,1.42-1.414l7.85,7.852A1,1,0,0,1,1179.02,506.02ZM1167,466a28,28,0,1,0,28,28A28,28,0,0,0,1167,466Zm19.08,45.66-2.11-2.1a1,1,0,1,0-1.41,1.414l2.1,2.1a25.879,25.879,0,0,1-16.66,6.9V517a1,1,0,0,0-2,0v2.973a25.9,25.9,0,0,1-16.66-6.9l2.1-2.1a1,1,0,1,0-1.41-1.414l-2.1,2.1a25.849,25.849,0,0,1-6.9-16.66H1144a1,1,0,1,0,0-2h-2.97a25.891,25.891,0,0,1,6.89-16.661l2.11,2.1a1,1,0,1,0,1.41-1.414l-2.1-2.1a25.88,25.88,0,0,1,16.66-6.9V471a1,1,0,1,0,2,0v-2.974a25.9,25.9,0,0,1,16.66,6.9l-2.1,2.105a0.983,0.983,0,0,0,0,1.414,1,1,0,0,0,1.41,0l2.11-2.1A25.889,25.889,0,0,1,1192.97,493H1190a1,1,0,0,0,0,2h2.97A25.891,25.891,0,0,1,1186.08,511.66Z" transform="translate(-1135 -462)"/>
</svg>
