<svg xmlns="http://www.w3.org/2000/svg" width="32" height="32" viewBox="0 0 32 32">
  <metadata><?xpacket begin="﻿" id="W5M0MpCehiHzreSzNTczkc9d"?>
<x:xmpmeta xmlns:x="adobe:ns:meta/" x:xmptk="Adobe XMP Core 5.6-c138 79.159824, 2016/09/14-01:09:01        ">
   <rdf:RDF xmlns:rdf="http://www.w3.org/1999/02/22-rdf-syntax-ns#">
      <rdf:Description rdf:about=""/>
   </rdf:RDF>
</x:xmpmeta>
                                                                                                    
                                                                                                    
                                                                                                    
                                                                                                    
                                                                                                    
                                                                                                    
                                                                                                    
                                                                                                    
                                                                                                    
                                                                                                    
                                                                                                    
                                                                                                    
                                                                                                    
                                                                                                    
                                                                                                    
                                                                                                    
                                                                                                    
                                                                                                    
                                                                                                    
                                                                                                    
                           
<?xpacket end="w"?></metadata>
<defs>
    <style>
      .cls-1 {
        fill: #fff;
        fill-rule: evenodd;
      }
    </style>
  </defs>
  <path id="Comments" class="cls-1" d="M1078,5393h-22a1.993,1.993,0,0,0-2,2v4h-4a1.993,1.993,0,0,0-2,2v14a1.993,1.993,0,0,0,2,2h4v6a2.01,2.01,0,0,0,1.23,1.85,2.069,2.069,0,0,0,.77.15,1.959,1.959,0,0,0,1.41-.59l7.42-7.41H1072a1.993,1.993,0,0,0,2-2v-4h4a1.993,1.993,0,0,0,2-2v-14A1.993,1.993,0,0,0,1078,5393Zm-6,21a1,1,0,0,1-1,1h-6.17a2.208,2.208,0,0,0-1.42.59L1056,5423v-7a1,1,0,0,0-1-1h-4a1,1,0,0,1-1-1v-12a1,1,0,0,1,1-1h20a1,1,0,0,1,1,1v12Zm6-6a1,1,0,0,1-1,1h-3v-8a1.993,1.993,0,0,0-2-2h-16v-3a1,1,0,0,1,1-1h20a1,1,0,0,1,1,1v12Zm-23-1h5a1,1,0,0,0,0-2h-5A1,1,0,0,0,1055,5407Zm12,2h-12a1,1,0,0,0,0,2h12A1,1,0,0,0,1067,5409Z" transform="translate(-1048 -5393)"/>
</svg>
