<svg version="1.1" xmlns="http://www.w3.org/2000/svg" xmlns:xlink="http://www.w3.org/1999/xlink" width="248" height="147"><defs/><g><path fill="#000000a6" stroke="none" paint-order="stroke fill markers" fill-rule="evenodd" d=" M 243.00001168251038 1.999930202960968 C 243.00001168251038 1.999930202960968 5.999969482421875 1.999930202960968 5.999969482421875 1.999930202960968 C 3.7890961170196533 1.999930202960968 1.9999196529388428 3.7890104055404663 1.9999196529388428 6.000051379203796 C 1.9999196529388428 6.000051379203796 1.9999196529388428 124.99996107816696 1.9999196529388428 124.99996107816696 C 1.9999196529388428 127.21100205183029 3.7890961170196533 129.0000822544098 5.999969482421875 129.0000822544098 C 5.999969482421875 129.0000822544098 13.999943971633911 129.0000822544098 13.999943971633911 129.0000822544098 C 13.999943971633911 129.0000822544098 13.999943971633911 144.00018805265427 13.999943971633911 144.00018805265427 C 13.999943971633911 144.40429985523224 14.243148803710938 144.76936703920364 14.617156028747559 144.9238721728325 C 14.741074085235596 144.97546684741974 14.871000289916992 145.0000091791153 15.00005030632019 145.0000091791153 C 15.259777545928955 145.0000091791153 15.515624523162842 144.89821428060532 15.707009077072144 144.70689564943314 C 15.707009077072144 144.70689564943314 31.414060831069946 129.0000822544098 31.414060831069946 129.0000822544098 C 31.414060831069946 129.0000822544098 243.00001168251038 129.0000822544098 243.00001168251038 129.0000822544098 C 245.2108850479126 129.0000822544098 246.99993634223938 127.21100205183029 246.99993634223938 124.99996107816696 C 246.99993634223938 124.99996107816696 246.99993634223938 6.000051379203796 246.99993634223938 6.000051379203796 C 246.99993634223938 3.7890104055404663 245.2108850479126 1.999930202960968 243.00001168251038 1.999930202960968 Z"/></g></svg>