<svg xmlns="http://www.w3.org/2000/svg" width="16" height="16" viewBox="0 0 16 16">
  <metadata><?xpacket begin="﻿" id="W5M0MpCehiHzreSzNTczkc9d"?>
<x:xmpmeta xmlns:x="adobe:ns:meta/" x:xmptk="Adobe XMP Core 5.6-c138 79.159824, 2016/09/14-01:09:01        ">
   <rdf:RDF xmlns:rdf="http://www.w3.org/1999/02/22-rdf-syntax-ns#">
      <rdf:Description rdf:about=""/>
   </rdf:RDF>
</x:xmpmeta>
                                                                                                    
                                                                                                    
                                                                                                    
                                                                                                    
                                                                                                    
                                                                                                    
                                                                                                    
                                                                                                    
                                                                                                    
                                                                                                    
                                                                                                    
                                                                                                    
                                                                                                    
                                                                                                    
                                                                                                    
                                                                                                    
                                                                                                    
                                                                                                    
                                                                                                    
                                                                                                    
                           
<?xpacket end="w"?></metadata>
<defs>
    <style>
      .cls-1 {
        fill: #f1303d;
        fill-rule: evenodd;
      }
    </style>
  </defs>
  <path id="Comments" class="cls-1" d="M1170,4259h-11a1,1,0,0,0-1,1v7a1,1,0,0,0,1,1h2v3a0.987,0.987,0,0,0,.62.92,0.838,0.838,0,0,0,.38.08,1.007,1.007,0,0,0,.71-0.29l3.7-3.71H1170a1,1,0,0,0,1-1v-7A1,1,0,0,0,1170,4259Zm-1,7h-3a1.024,1.024,0,0,0-.71.29l-2.29,2.3V4267a1,1,0,0,0-1-1h-2v-5h9v5Zm4-10h-11a1,1,0,0,0-1,1v1h10a1,1,0,0,1,1,1v6h1a1,1,0,0,0,1-1v-7A1,1,0,0,0,1173,4256Z" transform="translate(-1158 -4256)"/>
</svg>
