<svg xmlns="http://www.w3.org/2000/svg" width="52" height="64" viewBox="0 0 52 64">
  <metadata><?xpacket begin="﻿" id="W5M0MpCehiHzreSzNTczkc9d"?>
<x:xmpmeta xmlns:x="adobe:ns:meta/" x:xmptk="Adobe XMP Core 5.6-c138 79.159824, 2016/09/14-01:09:01        ">
   <rdf:RDF xmlns:rdf="http://www.w3.org/1999/02/22-rdf-syntax-ns#">
      <rdf:Description rdf:about=""/>
   </rdf:RDF>
</x:xmpmeta>
                                                                                                    
                                                                                                    
                                                                                                    
                                                                                                    
                                                                                                    
                                                                                                    
                                                                                                    
                                                                                                    
                                                                                                    
                                                                                                    
                                                                                                    
                                                                                                    
                                                                                                    
                                                                                                    
                                                                                                    
                                                                                                    
                                                                                                    
                                                                                                    
                                                                                                    
                                                                                                    
                           
<?xpacket end="w"?></metadata>
<defs>
    <style>
      .cls-1 {
        fill: #fff;
        fill-rule: evenodd;
      }
    </style>
  </defs>
  <path id="Decidious_tree" data-name="Decidious tree" class="cls-1" d="M882.231,482.892a16,16,0,1,0-30.462,0A15.987,15.987,0,1,0,863,512.816V525a1,1,0,0,0,1,1h6a1,1,0,0,0,1-1V512.816A15.987,15.987,0,1,0,882.231,482.892ZM869,524h-4V511.841a16.275,16.275,0,0,0,2-1.363,16.275,16.275,0,0,0,2,1.363V524Zm8-12a13.915,13.915,0,0,1-7.853-2.417L875.73,503H880a1,1,0,0,0,0-2h-4v-4a1,1,0,1,0-2,0v4.9l-6,6V495.414l3.718-3.718a1,1,0,0,0,0-1.415,1.018,1.018,0,0,0-1.429.014L867,493.586l-3.332-3.333a0.9,0.9,0,0,0-1.325.091,0.95,0.95,0,0,0-.043,1.372l3.7,3.7V507.9l-6-6V497a1,1,0,1,0-2,0v4h-4a1,1,0,0,0,0,2h4.269l6.583,6.582a13.993,13.993,0,1,1-10.372-25.344,14,14,0,1,1,25.039,0A13.994,13.994,0,0,1,877,512Z" transform="translate(-841 -462)"/>
</svg>
