<svg xmlns="http://www.w3.org/2000/svg" width="64" height="64" viewBox="0 0 64 64">
  <metadata><?xpacket begin="﻿" id="W5M0MpCehiHzreSzNTczkc9d"?>
<x:xmpmeta xmlns:x="adobe:ns:meta/" x:xmptk="Adobe XMP Core 5.6-c138 79.159824, 2016/09/14-01:09:01        ">
   <rdf:RDF xmlns:rdf="http://www.w3.org/1999/02/22-rdf-syntax-ns#">
      <rdf:Description rdf:about=""/>
   </rdf:RDF>
</x:xmpmeta>
                                                                                                    
                                                                                                    
                                                                                                    
                                                                                                    
                                                                                                    
                                                                                                    
                                                                                                    
                                                                                                    
                                                                                                    
                                                                                                    
                                                                                                    
                                                                                                    
                                                                                                    
                                                                                                    
                                                                                                    
                                                                                                    
                                                                                                    
                                                                                                    
                                                                                                    
                                                                                                    
                           
<?xpacket end="w"?></metadata>
<defs>
    <style>
      .cls-1 {
        fill: #fff;
      }

      .cls-1, .cls-2, .cls-3 {
        fill-rule: evenodd;
      }

      .cls-2 {
        fill: #f24652;
      }

      .cls-4 {
        fill: #f1303d;
      }
    </style>
  </defs>
  <path id="iMac_copy" data-name="iMac copy" class="cls-1" d="M928,2299H872a4,4,0,0,0-4,4v40a4,4,0,0,0,4,4h24v10h-8a4,4,0,0,0-4,4v1a1,1,0,0,0,1,1h30a1,1,0,0,0,1-1v-1a4,4,0,0,0-4-4h-8v-10h24a4,4,0,0,0,4-4v-40A4,4,0,0,0,928,2299Zm-26,58h-4v-10h4v10Zm-2-13a2,2,0,1,0-2-2A2,2,0,0,0,900,2344Z" transform="translate(-868 -2299)"/>
  <path id="Calendar" class="cls-2" d="M879,2334h6a1,1,0,0,0,1-1v-5a1,1,0,0,0-1-1h-6a1,1,0,0,0-1,1v5A1,1,0,0,0,879,2334Zm1-5h4v3h-4v-3Zm11,5h6a1,1,0,0,0,1-1v-5a1,1,0,0,0-1-1h-6a1,1,0,0,0-1,1v5A1,1,0,0,0,891,2334Zm1-5h4v3h-4v-3Zm11,5h6a1,1,0,0,0,1-1v-5a1,1,0,0,0-1-1h-6a1,1,0,0,0-1,1v5A1,1,0,0,0,903,2334Zm1-5h4v3h-4v-3Zm-25-6h6a1,1,0,0,0,1-1v-5a1,1,0,0,0-1-1h-6a1,1,0,0,0-1,1v5A1,1,0,0,0,879,2323Zm1-5h4v3h-4v-3Zm11,5h6a1,1,0,0,0,1-1v-5a1,1,0,0,0-1-1h-6a1,1,0,0,0-1,1v5A1,1,0,0,0,891,2323Zm1-5h4v3h-4v-3Zm11,5h6a1,1,0,0,0,1-1v-5a1,1,0,0,0-1-1h-6a1,1,0,0,0-1,1v5A1,1,0,0,0,903,2323Zm1-5h4v3h-4v-3Zm11,5h6a1,1,0,0,0,1-1v-5a1,1,0,0,0-1-1h-6a1,1,0,0,0-1,1v5A1,1,0,0,0,915,2323Zm1-5h4v3h-4v-3Zm-37-6h6a1,1,0,0,0,1-1v-5a1,1,0,0,0-1-1h-6a1,1,0,0,0-1,1v5A1,1,0,0,0,879,2312Zm1-5h4v3h-4v-3Zm11,5h6a1,1,0,0,0,1-1v-5a1,1,0,0,0-1-1h-6a1,1,0,0,0-1,1v5A1,1,0,0,0,891,2312Zm1-5h4v3h-4v-3Zm11,5h6a1,1,0,0,0,1-1v-5a1,1,0,0,0-1-1h-6a1,1,0,0,0-1,1v5A1,1,0,0,0,903,2312Zm1-5h4v3h-4v-3Zm11,5h6a1,1,0,0,0,1-1v-5a1,1,0,0,0-1-1h-6a1,1,0,0,0-1,1v5A1,1,0,0,0,915,2312Zm1-5h4v3h-4v-3Z" transform="translate(-868 -2299)"/>
  <path id="iMac" class="cls-3" d="M928,2299H872a4,4,0,0,0-4,4v40a4,4,0,0,0,4,4h24v10h-8a4,4,0,0,0-4,4v1a1,1,0,0,0,1,1h30a1,1,0,0,0,1-1v-1a4,4,0,0,0-4-4h-8v-10h24a4,4,0,0,0,4-4v-40A4,4,0,0,0,928,2299Zm-16,60a2,2,0,0,1,2,2H886a2,2,0,0,1,2-2h24Zm-10-2h-4v-10h4v10Zm28-14a2,2,0,0,1-2,2H872a2,2,0,0,1-2-2v-4h60v4Zm0-6H870v-34a2,2,0,0,1,2-2h56a2,2,0,0,1,2,2v34Zm-30,7a2,2,0,1,0-2-2A2,2,0,0,0,900,2344Z" transform="translate(-868 -2299)"/>
  <rect class="cls-4" x="28" y="40" width="9" height="6"/>
</svg>
