<svg 
 xmlns="http://www.w3.org/2000/svg"
 xmlns:xlink="http://www.w3.org/1999/xlink"
 width="3.739cm" height="3.104cm">
<path fill-rule="evenodd"  stroke-width="2px" stroke="rgb(0, 0, 0)" fill-opacity="0" fill="rgb(0, 0, 0)"
 d="M42.000,53.000 L72.000,53.000 C73.105,53.000 74.000,53.895 74.000,55.000 L74.000,70.000 C74.000,71.104 73.105,72.000 72.000,72.000 L42.000,72.000 C40.895,72.000 40.000,71.104 40.000,70.000 L40.000,55.000 C40.000,53.895 40.895,53.000 42.000,53.000 Z"/>
<path fill-rule="evenodd"  fill="rgb(0, 0, 0)"
 d="M56.000,41.000 L58.000,41.000 L58.000,51.000 L56.000,51.000 L56.000,41.000 Z"/>
<path fill-rule="evenodd"  stroke-width="2px" stroke="rgb(0, 0, 0)" fill="rgb(255, 255, 255)"
 d="M94.000,83.000 L64.000,83.000 C62.895,83.000 62.000,82.104 62.000,81.000 L62.000,66.000 C62.000,64.895 62.895,64.000 64.000,64.000 L94.000,64.000 C95.105,64.000 96.000,64.895 96.000,66.000 L96.000,81.000 C96.000,82.104 95.105,83.000 94.000,83.000 ZM72.000,39.000 L42.000,39.000 C40.895,39.000 40.000,38.104 40.000,37.000 L40.000,22.000 C40.000,20.895 40.895,20.000 42.000,20.000 L72.000,20.000 C73.105,20.000 74.000,20.895 74.000,22.000 L74.000,37.000 C74.000,38.104 73.105,39.000 72.000,39.000 ZM52.000,66.000 L52.000,81.000 C52.000,82.104 51.104,83.000 50.000,83.000 L20.000,83.000 C18.895,83.000 18.000,82.104 18.000,81.000 L18.000,66.000 C18.000,64.895 18.895,64.000 20.000,64.000 L50.000,64.000 C51.104,64.000 52.000,64.895 52.000,66.000 Z"/>
<path fill-rule="evenodd"  fill="rgb(241, 48, 61)"
 d="M-0.000,-0.000 L106.000,-0.000 L106.000,42.000 L-0.000,42.000 L-0.000,-0.000 Z"/>
</svg>