<svg id="Group_27_copy" data-name="Group 27 copy" xmlns="http://www.w3.org/2000/svg" width="64" height="64" viewBox="0 0 64 64">
  <metadata><?xpacket begin="﻿" id="W5M0MpCehiHzreSzNTczkc9d"?>
<x:xmpmeta xmlns:x="adobe:ns:meta/" x:xmptk="Adobe XMP Core 5.6-c138 79.159824, 2016/09/14-01:09:01        ">
   <rdf:RDF xmlns:rdf="http://www.w3.org/1999/02/22-rdf-syntax-ns#">
      <rdf:Description rdf:about=""/>
   </rdf:RDF>
</x:xmpmeta>
                                                                                                    
                                                                                                    
                                                                                                    
                                                                                                    
                                                                                                    
                                                                                                    
                                                                                                    
                                                                                                    
                                                                                                    
                                                                                                    
                                                                                                    
                                                                                                    
                                                                                                    
                                                                                                    
                                                                                                    
                                                                                                    
                                                                                                    
                                                                                                    
                                                                                                    
                                                                                                    
                           
<?xpacket end="w"?></metadata>
<defs>
    <style>
      .cls-1 {
        fill: #fff;
      }

      .cls-1, .cls-2 {
        fill-rule: evenodd;
      }

      .cls-3 {
        fill: #f1303d;
      }
    </style>
  </defs>
  <path id="Browser_copy" data-name="Browser copy" class="cls-1" d="M1228,2300h-56a4,4,0,0,0-4,4v56a4,4,0,0,0,4,4h56a4,4,0,0,0,4-4v-56A4,4,0,0,0,1228,2300Zm-53,4a3,3,0,1,0,3,3A3,3,0,0,0,1175,2304Zm0,4a1,1,0,1,1,1-1A1,1,0,0,1,1175,2308Zm26-4h-18a3,3,0,0,0,0,6h18A3,3,0,0,0,1201,2304Zm0,4h-18a1,1,0,0,1,0-2h18A1,1,0,0,1,1201,2308Zm-22,16h18a1,1,0,0,0,0-2h-18A1,1,0,0,0,1179,2324Zm0,6h18a1,1,0,0,0,0-2h-18A1,1,0,0,0,1179,2330Zm0,6h18a1,1,0,0,0,0-2h-18A1,1,0,0,0,1179,2336Zm0,6h18a1,1,0,0,0,0-2h-18A1,1,0,0,0,1179,2342Zm0,6h42a1,1,0,0,0,0-2h-42A1,1,0,0,0,1179,2348Zm0,6h42a1,1,0,0,0,0-2h-42A1,1,0,0,0,1179,2354Zm24-12h18a1,1,0,0,0,1-1v-18a1,1,0,0,0-1-1h-18a1,1,0,0,0-1,1v18A1,1,0,0,0,1203,2342Zm1-18h16v16h-16v-16Z" transform="translate(-1168 -2300)"/>
  <path id="Browser" class="cls-2" d="M1228,2300h-56a4,4,0,0,0-4,4v56a4,4,0,0,0,4,4h56a4,4,0,0,0,4-4v-56A4,4,0,0,0,1228,2300Zm2,60a2.006,2.006,0,0,1-2,2h-56a2.006,2.006,0,0,1-2-2v-46h60v46Zm0-48h-60v-8a2.006,2.006,0,0,1,2-2h56a2.006,2.006,0,0,1,2,2v8Zm-55-8a3,3,0,1,0,3,3A3,3,0,0,0,1175,2304Zm0,4a1,1,0,1,1,1-1A1,1,0,0,1,1175,2308Zm26-4h-18a3,3,0,0,0,0,6h18A3,3,0,0,0,1201,2304Zm0,4h-18a1,1,0,0,1,0-2h18A1,1,0,0,1,1201,2308Zm-22,16h18a1,1,0,0,0,0-2h-18A1,1,0,0,0,1179,2324Zm0,6h18a1,1,0,0,0,0-2h-18A1,1,0,0,0,1179,2330Zm0,6h18a1,1,0,0,0,0-2h-18A1,1,0,0,0,1179,2336Zm0,6h18a1,1,0,0,0,0-2h-18A1,1,0,0,0,1179,2342Zm0,6h42a1,1,0,0,0,0-2h-42A1,1,0,0,0,1179,2348Zm0,6h42a1,1,0,0,0,0-2h-42A1,1,0,0,0,1179,2354Zm24-12h18a1,1,0,0,0,1-1v-18a1,1,0,0,0-1-1h-18a1,1,0,0,0-1,1v18A1,1,0,0,0,1203,2342Zm1-18h16v16h-16v-16Z" transform="translate(-1168 -2300)"/>
  <rect class="cls-3" x="34" y="22" width="20" height="20"/>
</svg>
