<svg xmlns="http://www.w3.org/2000/svg" width="16" height="16" viewBox="0 0 16 16">
  <metadata><?xpacket begin="﻿" id="W5M0MpCehiHzreSzNTczkc9d"?>
<x:xmpmeta xmlns:x="adobe:ns:meta/" x:xmptk="Adobe XMP Core 5.6-c138 79.159824, 2016/09/14-01:09:01        ">
   <rdf:RDF xmlns:rdf="http://www.w3.org/1999/02/22-rdf-syntax-ns#">
      <rdf:Description rdf:about=""/>
   </rdf:RDF>
</x:xmpmeta>
                                                                                                    
                                                                                                    
                                                                                                    
                                                                                                    
                                                                                                    
                                                                                                    
                                                                                                    
                                                                                                    
                                                                                                    
                                                                                                    
                                                                                                    
                                                                                                    
                                                                                                    
                                                                                                    
                                                                                                    
                                                                                                    
                                                                                                    
                                                                                                    
                                                                                                    
                                                                                                    
                           
<?xpacket end="w"?></metadata>
<defs>
    <style>
      .cls-1 {
        fill: #f1303d;
        fill-rule: evenodd;
      }
    </style>
  </defs>
  <path id="File_copy" data-name="File copy" class="cls-1" d="M1173,358h-10a1,1,0,0,0-1,1v5h-3a1,1,0,0,0-1,1v6a3,3,0,0,0,3,3h10a3,3,0,0,0,3-3V359A1,1,0,0,0,1173,358Zm-11,13a1,1,0,0,1-2,0v-5h2v5Zm10,0a1,1,0,0,1-1,1h-7V360h8v11Zm-5-7h2a1,1,0,0,0,0-2h-2A1,1,0,0,0,1167,364Zm0,4h2a1,1,0,0,0,0-2h-2A1,1,0,0,0,1167,368Z" transform="translate(-1158 -358)"/>
</svg>
