<svg xmlns="http://www.w3.org/2000/svg" width="28" height="28" viewBox="0 0 28 28">
  <metadata><?xpacket begin="﻿" id="W5M0MpCehiHzreSzNTczkc9d"?>
<x:xmpmeta xmlns:x="adobe:ns:meta/" x:xmptk="Adobe XMP Core 5.6-c138 79.159824, 2016/09/14-01:09:01        ">
   <rdf:RDF xmlns:rdf="http://www.w3.org/1999/02/22-rdf-syntax-ns#">
      <rdf:Description rdf:about=""/>
   </rdf:RDF>
</x:xmpmeta>
                                                                                                    
                                                                                                    
                                                                                                    
                                                                                                    
                                                                                                    
                                                                                                    
                                                                                                    
                                                                                                    
                                                                                                    
                                                                                                    
                                                                                                    
                                                                                                    
                                                                                                    
                                                                                                    
                                                                                                    
                                                                                                    
                                                                                                    
                                                                                                    
                                                                                                    
                                                                                                    
                           
<?xpacket end="w"?></metadata>
<defs>
    <style>
      .cls-1 {
        fill: #fff;
        fill-rule: evenodd;
      }
    </style>
  </defs>
  <path id="File" class="cls-1" d="M1404,44h-18a2,2,0,0,0-2,2v9h-4a2,2,0,0,0-2,2V68a4,4,0,0,0,4,4h20a4,4,0,0,0,4-4V46A2,2,0,0,0,1404,44Zm-24,24V58a1,1,0,0,1,1-1h3V68A2,2,0,1,1,1380,68Zm22,2h-16.55a3.991,3.991,0,0,0,.55-2V47a1,1,0,0,1,1-1h16a1,1,0,0,1,1,1V68A2,2,0,0,1,1402,70Zm-3-11h-8a1,1,0,1,0,0,2h8A1,1,0,1,0,1399,59Zm0,4h-8a1,1,0,1,0,0,2h8A1,1,0,1,0,1399,63Zm0-8h-8a1,1,0,1,0,0,2h8A1,1,0,1,0,1399,55Zm-8-2h2a1,1,0,1,0,0-2h-2A1,1,0,1,0,1391,53Z" transform="translate(-1378 -44)"/>
</svg>
