<svg xmlns="http://www.w3.org/2000/svg" width="14" height="16" viewBox="0 0 14 16">
  <metadata><?xpacket begin="﻿" id="W5M0MpCehiHzreSzNTczkc9d"?>
<x:xmpmeta xmlns:x="adobe:ns:meta/" x:xmptk="Adobe XMP Core 5.6-c138 79.159824, 2016/09/14-01:09:01        ">
   <rdf:RDF xmlns:rdf="http://www.w3.org/1999/02/22-rdf-syntax-ns#">
      <rdf:Description rdf:about=""/>
   </rdf:RDF>
</x:xmpmeta>
                                                                                                    
                                                                                                    
                                                                                                    
                                                                                                    
                                                                                                    
                                                                                                    
                                                                                                    
                                                                                                    
                                                                                                    
                                                                                                    
                                                                                                    
                                                                                                    
                                                                                                    
                                                                                                    
                                                                                                    
                                                                                                    
                                                                                                    
                                                                                                    
                                                                                                    
                                                                                                    
                           
<?xpacket end="w"?></metadata>
<defs>
    <style>
      .cls-1 {
        fill: rgba(241, 48, 61, 255);
        fill-rule: evenodd;
      }
    </style>
  </defs>
  <path id="File" class="cls-1" d="M1056,357h-12a1,1,0,0,0-1,1v14a1,1,0,0,0,1,1h12a1,1,0,0,0,1-1V358A1,1,0,0,0,1056,357Zm-1,14h-10V359h10v12Zm-7-3h4a1,1,0,0,0,0-2h-4A1,1,0,0,0,1048,368Zm0-4h2a1,1,0,0,0,0-2h-2A1,1,0,0,0,1048,364Z" transform="translate(-1043 -357)"/>
</svg>
