<svg xmlns="http://www.w3.org/2000/svg" width="64" height="83" viewBox="0 0 64 83">
  <metadata><?xpacket begin="﻿" id="W5M0MpCehiHzreSzNTczkc9d"?>
<x:xmpmeta xmlns:x="adobe:ns:meta/" x:xmptk="Adobe XMP Core 5.6-c138 79.159824, 2016/09/14-01:09:01        ">
   <rdf:RDF xmlns:rdf="http://www.w3.org/1999/02/22-rdf-syntax-ns#">
      <rdf:Description rdf:about=""/>
   </rdf:RDF>
</x:xmpmeta>
                                                                                                    
                                                                                                    
                                                                                                    
                                                                                                    
                                                                                                    
                                                                                                    
                                                                                                    
                                                                                                    
                                                                                                    
                                                                                                    
                                                                                                    
                                                                                                    
                                                                                                    
                                                                                                    
                                                                                                    
                                                                                                    
                                                                                                    
                                                                                                    
                                                                                                    
                                                                                                    
                           
<?xpacket end="w"?></metadata>
<defs>
    <style>
      .cls-1 {
        fill: #f1f1f1;
      }

      .cls-1, .cls-3, .cls-4, .cls-5, .cls-6 {
        fill-rule: evenodd;
      }

      .cls-2 {
        fill: #f1303d;
      }

      .cls-3 {
        opacity: 0.05;
      }

      .cls-4, .cls-5 {
        fill: #fff;
      }

      .cls-4 {
        opacity: 0.61;
      }
    </style>
  </defs>
  <path id="Folder_copy" data-name="Folder copy" class="cls-1" d="M1078,948h-24v-4a4,4,0,0,0-4-4h-28a4,4,0,0,0-4,4v56a4,4,0,0,0,4,4h56a4,4,0,0,0,4-4V952A4,4,0,0,0,1078,948Zm-45,38h34a1,1,0,0,0,0-2h-34A1,1,0,0,0,1033,986Zm0-6h34a1,1,0,0,0,0-2h-34A1,1,0,0,0,1033,980Zm0-6h16a1,1,0,0,0,0-2h-16A1,1,0,0,0,1033,974Z" transform="translate(-1018 -922)"/>
  <rect class="cls-2" x="14" y="27" width="8" height="5"/>
  <path id="Folder_copy_3" data-name="Folder copy 3" class="cls-4" d="M1081,1003a2.006,2.006,0,0,1-2,2h-56a2.006,2.006,0,0,1-2-2V959h60v44Zm0-46h-60V947a2,2,0,0,1,2-2h28c1.1,0,2-2.105,2-1v6l26,3a2,2,0,0,1,2,2v2Zm-47,32h34a1,1,0,0,0,0-2h-34A1,1,0,0,0,1034,989Zm0-6h34a1,1,0,0,0,0-2h-34A1,1,0,0,0,1034,983Zm0-6h16a1,1,0,0,0,0-2h-16A1,1,0,0,0,1034,977Zm49,28a2.006,2.006,0,0,1-2,2h-56a2.006,2.006,0,0,1-2-2V961h60v44Zm0-46h-60V949a2,2,0,0,1,2-2h28a2,2,0,0,1,2,2v3.058L1081,955a2,2,0,0,1,2,2v2Z" transform="translate(-1018 -922)"/>
  <path id="Folder_copy_2" data-name="Folder copy 2" class="cls-5" d="M1081,1001a2.006,2.006,0,0,1-2,2h-56a2.006,2.006,0,0,1-2-2V957h60v44Zm0-46h-60V945a2,2,0,0,1,2-2h28a2,2,0,0,1,2,2v6h26a2,2,0,0,1,2,2v2Zm-47,32h34a1,1,0,0,0,0-2h-34A1,1,0,0,0,1034,987Zm0-6h34a1,1,0,0,0,0-2h-34A1,1,0,0,0,1034,981Zm0-6h16a1,1,0,0,0,0-2h-16A1,1,0,0,0,1034,975Zm49,28a2.006,2.006,0,0,1-2,2h-56a2.006,2.006,0,0,1-2-2V959h60v44Zm0-46h-60V947a2,2,0,0,1,2-2h28a2,2,0,0,1,2,2v4.209L1081,953a2,2,0,0,1,2,2v2Z" transform="translate(-1018 -922)"/>
  <path id="Folder" class="cls-6" d="M1078,948h-24v-4a4,4,0,0,0-4-4h-28a4,4,0,0,0-4,4v56a4,4,0,0,0,4,4h56a4,4,0,0,0,4-4V952A4,4,0,0,0,1078,948Zm2,52a2.006,2.006,0,0,1-2,2h-56a2.006,2.006,0,0,1-2-2V956h60v44Zm0-46h-60V944a2,2,0,0,1,2-2h28a2,2,0,0,1,2,2v6h26a2,2,0,0,1,2,2v2Zm-47,32h34a1,1,0,0,0,0-2h-34A1,1,0,0,0,1033,986Zm0-6h34a1,1,0,0,0,0-2h-34A1,1,0,0,0,1033,980Zm0-6h16a1,1,0,0,0,0-2h-16A1,1,0,0,0,1033,974Z" transform="translate(-1018 -922)"/>
</svg>
