<svg xmlns="http://www.w3.org/2000/svg" width="16" height="16" viewBox="0 0 16 16">
  <metadata><?xpacket begin="﻿" id="W5M0MpCehiHzreSzNTczkc9d"?>
<x:xmpmeta xmlns:x="adobe:ns:meta/" x:xmptk="Adobe XMP Core 5.6-c138 79.159824, 2016/09/14-01:09:01        ">
   <rdf:RDF xmlns:rdf="http://www.w3.org/1999/02/22-rdf-syntax-ns#">
      <rdf:Description rdf:about=""/>
   </rdf:RDF>
</x:xmpmeta>
                                                                                                    
                                                                                                    
                                                                                                    
                                                                                                    
                                                                                                    
                                                                                                    
                                                                                                    
                                                                                                    
                                                                                                    
                                                                                                    
                                                                                                    
                                                                                                    
                                                                                                    
                                                                                                    
                                                                                                    
                                                                                                    
                                                                                                    
                                                                                                    
                                                                                                    
                                                                                                    
                           
<?xpacket end="w"?></metadata>
<defs>
    <style>
      .cls-1 {
        fill: #fff;
        fill-rule: evenodd;
      }
    </style>
  </defs>
  <path id="Glasses" class="cls-1" d="M1173,5006h-1a1,1,0,0,0,0,2v6.55a4,4,0,0,0-2-.55h-1a3.951,3.951,0,0,1-6,0h-1a4,4,0,0,0-2,.55V5008a1,1,0,0,0,0-2h-1a1,1,0,0,0-1,1v11a4,4,0,0,0,4,4h1a3.951,3.951,0,0,1,6,0h1a4,4,0,0,0,4-4v-11A1,1,0,0,0,1173,5006Zm-8,12h0a2,2,0,0,1-2,2h-1a2,2,0,0,1-2-2h0a2,2,0,0,1,2-2h1a2,2,0,0,1,2,2h0Zm7,0h0a2,2,0,0,1-2,2h-1a2,2,0,0,1-2-2h0a2,2,0,0,1,2-2h1a2,2,0,0,1,2,2h0Z" transform="translate(-1158 -5006)"/>
</svg>
