<svg version="1.1" xmlns="http://www.w3.org/2000/svg" xmlns:xlink="http://www.w3.org/1999/xlink" width="18" height="17"><defs/><g><path fill="rgb(0,0,0)" stroke="none" paint-order="stroke fill markers" fill-rule="evenodd" d=" M 12.999905824661255 1.9957676529884338 C 11.895533084869385 1.9957676529884338 10.895426750183105 2.4433863162994385 10.171820402145386 3.165990650653839 C 10.171820402145386 3.165990650653839 8.999981164932251 4.328962504863739 8.999981164932251 4.328962504863739 C 8.999981164932251 4.328962504863739 7.828016757965088 3.165990650653839 7.828016757965088 3.165990650653839 C 7.104410409927368 2.4433863162994385 6.104429244995117 1.9957676529884338 4.999931335449219 1.9957676529884338 C 2.790935516357422 1.9957676529884338 1.0000066757202148 3.784290075302124 1.0000066757202148 5.990868806838989 C 1.0000066757202148 7.093879282474518 1.712848424911499 8.124099433422089 2.4374561309814453 8.84670376777649 C 2.4374561309814453 8.84670376777649 8.29289722442627 14.696145415306091 8.29289722442627 14.696145415306091 C 8.683552026748657 15.086312711238861 9.316410303115845 15.086312711238861 9.707065105438232 14.696145415306091 C 9.707065105438232 14.696145415306091 15.546859979629517 8.862321615219116 15.546859979629517 8.862321615219116 C 16.271467685699463 8.139717280864716 16.999955654144287 7.093879282474518 16.999955654144287 5.990868806838989 C 16.999955654144287 3.784290075302124 15.208901643753052 1.9957676529884338 12.999905824661255 1.9957676529884338 Z M 8.999981164932251 12.57658040523529 C 8.999981164932251 12.57658040523529 3.843738317489624 7.426316320896149 3.843738317489624 7.426316320896149 C 3.481497049331665 7.0657113790512085 2.999969005584717 6.54279237985611 2.999969005584717 5.990868806838989 C 2.999969005584717 4.887579441070557 3.8954334259033203 3.9931787848472595 4.999931335449219 3.9931787848472595 C 5.55280613899231 3.9931787848472595 6.052734136581421 4.216569781303406 6.414099216461182 4.578569173812866 C 6.414099216461182 4.578569173812866 8.29289722442627 6.447411954402924 8.29289722442627 6.447411954402924 C 8.683552026748657 6.837579250335693 9.316410303115845 6.837579250335693 9.707065105438232 6.447411954402924 C 9.707065105438232 6.447411954402924 11.58586311340332 4.578569173812866 11.58586311340332 4.578569173812866 C 11.947228193283081 4.216569781303406 12.44728136062622 3.9931787848472595 12.999905824661255 3.9931787848472595 C 14.104528903961182 3.9931787848472595 14.999993324279785 4.887579441070557 14.999993324279785 5.990868806838989 C 14.999993324279785 6.54279237985611 14.518590450286865 7.0657113790512085 14.156224012374878 7.426316320896149 C 14.156224012374878 7.426316320896149 8.999981164932251 12.57658040523529 8.999981164932251 12.57658040523529 Z"/></g></svg>