<svg xmlns="http://www.w3.org/2000/svg" width="64" height="64" viewBox="0 0 64 64">
  <metadata><?xpacket begin="﻿" id="W5M0MpCehiHzreSzNTczkc9d"?>
<x:xmpmeta xmlns:x="adobe:ns:meta/" x:xmptk="Adobe XMP Core 5.6-c138 79.159824, 2016/09/14-01:09:01        ">
   <rdf:RDF xmlns:rdf="http://www.w3.org/1999/02/22-rdf-syntax-ns#">
      <rdf:Description rdf:about=""/>
   </rdf:RDF>
</x:xmpmeta>
                                                                                                    
                                                                                                    
                                                                                                    
                                                                                                    
                                                                                                    
                                                                                                    
                                                                                                    
                                                                                                    
                                                                                                    
                                                                                                    
                                                                                                    
                                                                                                    
                                                                                                    
                                                                                                    
                                                                                                    
                                                                                                    
                                                                                                    
                                                                                                    
                                                                                                    
                                                                                                    
                           
<?xpacket end="w"?></metadata>
<defs>
    <style>
      .cls-1 {
        fill: #fff;
        fill-rule: evenodd;
      }
    </style>
  </defs>
  <path id="Man" class="cls-1" d="M1496.24,509.757l0.02-.013a47.844,47.844,0,0,0-20.5-9.722A13.954,13.954,0,0,0,1480,490a3,3,0,0,0,3-3v-2a2.977,2.977,0,0,0-1-2.222V474a12,12,0,0,0-12-12h-8a12,12,0,0,0-12,12v8.778a2.977,2.977,0,0,0-1,2.222v2a3,3,0,0,0,3,3,13.954,13.954,0,0,0,4.24,10.023,47.856,47.856,0,0,0-20.5,9.722l0.02,0.013A5.969,5.969,0,0,0,1434,514v8a4,4,0,0,0,4,4h56a4,4,0,0,0,4-4v-8A5.969,5.969,0,0,0,1496.24,509.757ZM1452,474a10,10,0,0,1,10-10h8a10,10,0,0,1,10,10v7a6,6,0,0,0-6-6h-6a4,4,0,0,1-4-4,1,1,0,1,0-2,0,4,4,0,0,1-4,4,6,6,0,0,0-6,6v-7Zm2,16v-1a1,1,0,0,0-1-1h-1a1,1,0,0,1-1-1v-2a1,1,0,0,1,1-1h1a1,1,0,0,0,1-1v-2a4,4,0,0,1,4-4,6,6,0,0,1,10,0h6a4,4,0,0,1,4,4v2a1,1,0,0,0,1,1h1a1,1,0,0,1,1,1v2a1,1,0,0,1-1,1h-1a1,1,0,0,0-1,1v1A12,12,0,1,1,1454,490Zm12,14a13.91,13.91,0,0,0,7.71-2.323,46.44,46.44,0,0,1,4.9,1.084,17.859,17.859,0,0,1-25.26.013,45.921,45.921,0,0,1,4.94-1.1A13.91,13.91,0,0,0,1466,504Zm30,18a2,2,0,0,1-2,2h-56a2,2,0,0,1-2-2v-8a4,4,0,0,1,1.17-2.828v0a45.908,45.908,0,0,1,14.04-7.714,19.911,19.911,0,0,0,29.53-.014,45.893,45.893,0,0,1,14.09,7.728v0A4,4,0,0,1,1496,514v8Zm-37.46-38.138a1.013,1.013,0,0,0,1.34-.4A1.232,1.232,0,0,1,1461,483a1.277,1.277,0,0,1,1.11.458,1.007,1.007,0,0,0,.89.542,1.025,1.025,0,0,0,.46-0.112,1,1,0,0,0,.43-1.346A3.226,3.226,0,0,0,1461,481a3.16,3.16,0,0,0-2.9,1.565A0.97,0.97,0,0,0,1458.54,483.862Zm10,0a1.013,1.013,0,0,0,1.34-.4A1.232,1.232,0,0,1,1471,483a1.257,1.257,0,0,1,1.11.458,1.007,1.007,0,0,0,.89.542,1,1,0,0,0,.89-1.458A3.226,3.226,0,0,0,1471,481a3.16,3.16,0,0,0-2.9,1.565A0.988,0.988,0,0,0,1468.54,483.862Z" transform="translate(-1434 -462)"/>
</svg>
