<svg width="22" height="20" xmlns="http://www.w3.org/2000/svg">

 <g>
  <title>background</title>
  <rect fill="none" id="canvas_background" height="22" width="24" y="-1" x="-1"/>
 </g>
 <g>
  <title>Layer 1</title>
  <path id="svg_1" fill="#F1303D" d="m14.9704,9.65385l0,4.21625c0,0.0405 0,0.081 0,0.081c0,0.0406 0,0.0406 0,0.0811c0,1.2973 0.2435,3.3649 -3.6939,3.3649c-11.8123,0 -37.7911,0 -40.1049,0c2.2326,-0.1216 25.4918,-1.5405 38.0753,-1.5405c2.3949,0 2.5979,-0.8514 2.5979,-1.419c0,-0.1216 -0.0406,-0.2027 -0.0406,-0.3243l0.0406,-4.45945l-2.0702,0l3.6127,-6.12162l3.6127,6.12162l-2.0296,0z" clip-rule="evenodd" fill-rule="evenodd"/>
 </g>
</svg>