<svg version="1.1" xmlns="http://www.w3.org/2000/svg" xmlns:xlink="http://www.w3.org/1999/xlink" width="28" height="35"><defs/><g><path fill="rgb(255,255,255)" stroke="none" paint-order="stroke fill markers" fill-rule="evenodd" d=" M 26.00000548362732 12.999875247478485 C 26.00000548362732 6.372887909412384 20.62696862220764 1.000069499015808 13.999981164932251 1.000069499015808 C 7.37299370765686 1.000069499015808 1.9999568462371826 6.372887909412384 1.9999568462371826 12.999875247478485 C 1.9999568462371826 16.555445551872253 3.555691719055176 19.740370869636536 6.012648820877075 21.937467336654663 C 6.011647462844849 21.958941876888275 5.9998815059661865 21.977627515792847 5.9998815059661865 21.99993872642517 C 5.9998815059661865 21.99993872642517 5.9998815059661865 32.00010222196579 5.9998815059661865 32.00010222196579 C 5.9998815059661865 32.37493056058884 6.2089149951934814 32.71768653392792 6.5418665409088135 32.889482855796814 C 6.874943256378174 33.060442507267 7.276362657546997 33.03115904331207 7.581025838851929 32.81362473964691 C 7.581025838851929 32.81362473964691 13.999981164932251 28.228670954704285 13.999981164932251 28.228670954704285 C 13.999981164932251 28.228670954704285 20.418936491012573 32.81362473964691 20.418936491012573 32.81362473964691 C 20.591670751571655 32.93745195865631 20.79482126235962 32.99992334842682 20.999974489212036 32.99992334842682 C 21.156311511993408 32.99992334842682 21.31339955329895 32.963109850883484 21.45797061920166 32.889482855796814 C 21.790922164916992 32.71768653392792 21.999955654144287 32.37493056058884 21.999955654144287 32.00010222196579 C 21.999955654144287 32.00010222196579 21.999955654144287 21.99993872642517 21.999955654144287 21.99993872642517 C 21.999955654144287 21.977627515792847 21.98931622505188 21.958941876888275 21.987313508987427 21.937467336654663 C 24.444270610809326 19.740370869636536 26.00000548362732 16.555445551872253 26.00000548362732 12.999875247478485 Z M 3.9999191761016846 12.999875247478485 C 3.9999191761016846 7.477292835712433 8.477491617202759 2.9999906420707703 13.999981164932251 2.9999906420707703 C 19.522470712661743 2.9999906420707703 24.000043153762817 7.477292835712433 24.000043153762817 12.999875247478485 C 24.000043153762817 18.522457659244537 19.522470712661743 23.000317633152008 13.999981164932251 23.000317633152008 C 8.477491617202759 23.000317633152008 3.9999191761016846 18.522457659244537 3.9999191761016846 12.999875247478485 Z M 19.999993324279785 30.056516885757446 C 19.999993324279785 30.056516885757446 14.581019163131714 26.186358511447906 14.581019163131714 26.186358511447906 C 14.23329758644104 25.9381462931633 13.766539573669434 25.9381462931633 13.41881799697876 26.186358511447906 C 13.41881799697876 26.186358511447906 7.999969005584717 30.056516885757446 7.999969005584717 30.056516885757446 C 7.999969005584717 30.056516885757446 7.999969005584717 23.38100266456604 7.999969005584717 23.38100266456604 C 9.766489744186401 24.404529452323914 11.811513185501099 24.999959886074066 13.999981164932251 24.999959886074066 C 16.188449144363403 24.999959886074066 18.233347415924072 24.404529452323914 19.999993324279785 23.38100266456604 C 19.999993324279785 23.38100266456604 19.999993324279785 30.056516885757446 19.999993324279785 30.056516885757446 Z M 13.999981164932251 21.000117599964142 C 18.411088466644287 21.000117599964142 21.999955654144287 17.411080479621887 21.999955654144287 12.999875247478485 C 21.999955654144287 8.588948905467987 18.411088466644287 4.999911785125732 13.999981164932251 4.999911785125732 C 9.588873863220215 4.999911785125732 5.9998815059661865 8.588948905467987 5.9998815059661865 12.999875247478485 C 5.9998815059661865 17.411080479621887 9.588873863220215 21.000117599964142 13.999981164932251 21.000117599964142 Z M 13.999981164932251 7.000111818313599 C 17.308593273162842 7.000111818313599 19.999993324279785 9.691401600837708 19.999993324279785 12.999875247478485 C 19.999993324279785 16.308627784252167 17.308593273162842 19.00019645690918 13.999981164932251 19.00019645690918 C 10.69136905670166 19.00019645690918 7.999969005584717 16.308627784252167 7.999969005584717 12.999875247478485 C 7.999969005584717 9.691401600837708 10.69136905670166 7.000111818313599 13.999981164932251 7.000111818313599 Z"/></g></svg>