<svg width="96" height="16" viewBox="0 0 96 16" fill="none" xmlns="http://www.w3.org/2000/svg">
<path fill-rule="evenodd" clip-rule="evenodd" d="M47.5332 13.8649C47.1679 14.2297 46.7619 14.5135 46.3154 14.6757C45.9095 14.8378 45.3818 14.9189 44.7323 14.9189C44.0829 14.9189 43.5552 14.8378 43.0681 14.6757C42.6216 14.5135 42.2156 14.2703 41.8909 13.9459C41.3226 13.3784 41.0791 12.6081 41.0791 11.6757C41.0791 11.0676 41.2008 10.5405 41.485 10.0946C41.7691 9.64865 42.175 9.28378 42.7027 9.04054C43.2304 8.7973 43.9205 8.67568 44.6918 8.67568H47.4926V7.94595C47.4926 7.25676 47.3302 6.77027 46.9649 6.44595C46.5996 6.12162 46.0313 5.95946 45.2194 5.95946C44.6512 5.95946 44.1641 6.04054 43.8393 6.16216C43.5146 6.32432 43.1898 6.56757 42.9057 6.93243L41.5256 5.63514C42.0127 5.06757 42.5404 4.66216 43.1087 4.45946C43.677 4.21622 44.4076 4.13514 45.3006 4.13514C48.1827 4.13514 49.644 5.35135 49.644 7.74324V14.7568H47.5738V13.8649H47.5332ZM47.4926 10.1757H45.0165C44.4076 10.1757 43.9205 10.2973 43.5958 10.5811C43.271 10.8243 43.1087 11.2297 43.1087 11.7162C43.1087 12.6892 43.7581 13.2162 45.0165 13.2162C45.463 13.2162 45.8283 13.1757 46.1531 13.0946C46.4372 13.0135 46.7214 12.8514 47.0055 12.6081C47.2896 12.3243 47.452 11.7973 47.452 11.0676V10.1757H47.4926ZM37.3446 0H39.5772V2.22973H37.3446V0ZM32.9607 13.7027C32.7171 14.027 32.433 14.2703 32.1488 14.4324C31.8647 14.5946 31.5805 14.7162 31.2558 14.7973C30.9311 14.8784 30.5658 14.9189 30.1598 14.9189C29.6321 14.9189 29.145 14.8378 28.6985 14.6757C28.252 14.5135 27.8867 14.2703 27.5619 13.9865C27.2372 13.6622 26.9937 13.2568 26.7907 12.7703C26.6283 12.2838 26.5066 11.7973 26.466 11.2703C26.4254 10.7432 26.3848 10.1757 26.3848 9.52703C26.3848 8.87838 26.4254 8.27027 26.466 7.78378C26.5066 7.25676 26.6283 6.77027 26.7907 6.32432C26.9531 5.83784 27.1966 5.43243 27.5619 5.10811C27.8461 4.82432 28.2114 4.58108 28.6579 4.41892C29.1044 4.25676 29.5915 4.17568 30.0786 4.17568C30.6469 4.17568 31.1746 4.25676 31.6211 4.45946C32.0677 4.62162 32.4736 4.94595 32.8389 5.39189V2.14865L34.9497 0.0810811V14.8378H32.8795V13.7027H32.9607ZM32.7577 7.74324C32.6359 7.25676 32.433 6.85135 32.1082 6.52703C31.7835 6.24324 31.337 6.08108 30.7281 6.08108C30.1192 6.08108 29.6727 6.24324 29.348 6.52703C29.0233 6.81081 28.8203 7.21622 28.6985 7.74324C28.5767 8.22973 28.5362 8.83784 28.5362 9.56757C28.5362 10.2973 28.5767 10.9054 28.6985 11.3919C28.8203 11.8784 29.0233 12.2838 29.348 12.6081C29.6727 12.9324 30.1192 13.0541 30.7281 13.0541C31.5805 13.0541 32.1894 12.7297 32.4736 12.1216C32.7577 11.5135 32.9201 10.6622 32.9201 9.56757C32.9201 8.83784 32.8795 8.22973 32.7577 7.74324ZM18.6317 11.7568C18.8347 12.2027 19.1594 12.527 19.5247 12.7703C19.9307 13.0135 20.4178 13.1351 20.986 13.1351C21.5543 13.1351 22.0414 13.0541 22.4068 12.8919C22.7721 12.7297 23.1374 12.4459 23.5433 12.0811L24.8829 13.3378C24.3146 13.9054 23.7463 14.3108 23.1374 14.5946C22.5691 14.8378 21.7979 15 20.9455 15C20.2554 15 19.6465 14.9189 19.0782 14.7162C18.5099 14.5135 17.9822 14.2297 17.5763 13.7838C17.1704 13.3784 16.8051 12.8108 16.6021 12.1216C16.3586 11.3514 16.2368 10.5405 16.2368 9.56757C16.2368 8.43243 16.4397 7.45946 16.8051 6.68919C17.1704 5.87838 17.6981 5.27027 18.3476 4.86486C18.997 4.45946 19.8089 4.21622 20.7019 4.21622C21.6355 4.21622 22.4068 4.41892 23.0968 4.86486C23.7869 5.27027 24.274 5.87838 24.6393 6.64865C25.0047 7.41892 25.167 8.31081 25.167 9.28378V10.2162H18.307C18.307 10.7838 18.4288 11.3108 18.6317 11.7568ZM23.0562 8.71622C23.0562 8.18919 22.9345 7.7027 22.7721 7.2973C22.6097 6.89189 22.3256 6.56757 21.9603 6.32432C21.5949 6.08108 21.189 5.95946 20.6613 5.95946C20.1742 5.95946 19.7277 6.08108 19.3624 6.32432C18.997 6.56757 18.7129 6.89189 18.5505 7.2973C18.4693 7.5 18.3882 7.7027 18.3476 7.86486C18.307 8.02703 18.307 8.31081 18.2664 8.71622H23.0562ZM12.8271 8.43243C12.8271 7.66216 12.6241 7.05405 12.2588 6.68919C11.8529 6.32432 11.3657 6.12162 10.7163 6.12162C10.1074 6.12162 9.5797 6.32432 9.17378 6.68919C8.76786 7.09459 8.52431 7.62162 8.52431 8.35135V14.8378H6.41353V8.43243C6.41353 7.90541 6.33235 7.45946 6.12939 7.13514C5.92643 6.77027 5.68287 6.52703 5.35814 6.36486C5.0334 6.2027 4.66808 6.12162 4.26216 6.12162C3.61268 6.12162 3.12558 6.32432 2.67907 6.72973C2.27315 7.13514 2.07019 7.7027 2.07019 8.47297V14.8784H0V4.2973H2.07019V5.35135C2.43552 4.98649 2.84144 4.7027 3.32854 4.5C3.81564 4.2973 4.34334 4.17568 4.87104 4.17568C6.21057 4.17568 7.18478 4.7027 7.87484 5.71622C8.72727 4.7027 9.82326 4.17568 11.1628 4.17568C12.2588 4.17568 13.1518 4.5 13.8013 5.14865C14.5319 5.87838 14.8973 6.85135 14.8973 8.10811V14.8378H12.7865V8.43243H12.8271ZM39.5366 14.7973H37.4258V4.2973H39.5366V14.7973Z" fill="black"/>
<path fill-rule="evenodd" clip-rule="evenodd" d="M93.9704 7.65385V11.8701C93.9704 11.9106 93.9704 11.9511 93.9704 11.9511C93.9704 11.9917 93.9704 11.9917 93.9704 12.0322C93.9704 13.3295 94.2139 15.3971 90.2765 15.3971C78.4642 15.3971 52.4854 15.3971 50.1716 15.3971C52.4042 15.2755 75.6634 13.8566 88.2469 13.8566C90.6418 13.8566 90.8448 13.0052 90.8448 12.4376C90.8448 12.316 90.8042 12.2349 90.8042 12.1133L90.8448 7.65385H88.7746L92.3873 1.53223L96 7.65385H93.9704Z" fill="#F1303D"/>
<path fill-rule="evenodd" clip-rule="evenodd" d="M50.0093 15.3975C50.0093 15.3975 50.0905 15.3975 50.2122 15.3975C50.0499 15.438 50.0093 15.438 50.0093 15.3975Z" fill="#F1303D"/>
<path fill-rule="evenodd" clip-rule="evenodd" d="M86.5421 7.61344C86.4204 7.49182 86.2986 7.41074 86.1768 7.32966C86.0144 7.24857 85.7709 7.16749 85.4868 7.16749C85.162 7.16749 84.8779 7.28912 84.5531 7.53236C84.269 7.7756 84.1066 8.18101 84.1066 8.70803V12.8837L80.6969 13.0459V4.24857H84.0254V5.14047C84.3096 4.85668 84.6749 4.61344 85.162 4.41074C85.6085 4.20803 86.1362 4.12695 86.6639 4.12695C87.2322 4.12695 87.6787 4.20803 88.0846 4.3702C88.247 4.41074 88.3688 4.49182 88.5312 4.5729L86.5421 7.61344Z" fill="#F1303D"/>
<path fill-rule="evenodd" clip-rule="evenodd" d="M74.9327 11.5054C74.9327 11.4243 74.9327 11.3027 74.9327 11.2216V10.9378H73.2279C72.9031 10.9378 72.6596 11.0189 72.4566 11.181C72.2537 11.3432 72.1725 11.5459 72.1725 11.8297C72.1725 11.9513 72.1725 12.0324 72.2131 12.1135V13.4108L68.8845 13.5324V11.8702C68.8845 11.2621 69.0063 10.7351 69.2904 10.2486C69.5746 9.76211 69.9805 9.35671 70.5488 9.07293C71.1171 8.78914 71.8477 8.62698 72.7002 8.62698H74.9733V8.3432C74.9733 7.81617 74.8515 7.4513 74.5674 7.2486C74.3238 7.0459 73.8773 6.92428 73.2685 6.92428C72.8625 6.92428 72.4972 6.96482 72.2537 7.08644C72.0101 7.20806 71.726 7.37022 71.4824 7.65401L69.3716 5.5459C69.9399 4.97833 70.5488 4.57293 71.1171 4.37022C71.726 4.16752 72.4972 4.0459 73.4308 4.0459C75.0545 4.0459 76.2723 4.37022 77.0841 5.05941C77.9365 5.7486 78.3425 6.72157 78.3425 8.09995V13.1675L74.9327 13.3297V11.5054Z" fill="#F1303D"/>
<path fill-rule="evenodd" clip-rule="evenodd" d="M63.7294 8.74859C63.7294 8.18102 63.567 7.77562 63.2828 7.53237C62.9987 7.28913 62.674 7.20805 62.3492 7.20805C62.0245 7.20805 61.6998 7.32967 61.4156 7.53237C61.1315 7.77562 60.9691 8.14048 60.9691 8.70805V13.8567L57.5594 14.0189V8.74859C57.5594 8.18102 57.397 7.77562 57.1129 7.53237C56.8287 7.28913 56.504 7.20805 56.1793 7.20805C55.8545 7.20805 55.5298 7.32967 55.2456 7.53237C54.9615 7.77562 54.7991 8.14048 54.7991 8.70805V14.1405L51.3894 14.3026V4.24859H54.7179V5.14048C55.0427 4.81616 55.4486 4.57291 55.9357 4.37021C56.4228 4.20805 56.8693 4.08643 57.3158 4.08643C58.4118 4.08643 59.3454 4.49183 60.0355 5.2621C60.5226 4.8567 61.0097 4.53237 61.4968 4.37021C61.9839 4.16751 62.5522 4.08643 63.2017 4.08643C63.7294 4.08643 64.2571 4.16751 64.7442 4.32967C65.2313 4.49183 65.5966 4.73507 65.8807 5.01886C66.3273 5.4648 66.652 5.95129 66.8144 6.47832C66.9767 7.00534 67.0985 7.57291 67.0985 8.22156V13.5729L63.6888 13.7351V8.74859H63.7294Z" fill="#F1303D"/>
</svg>
