<svg version="1.1" xmlns="http://www.w3.org/2000/svg" xmlns:xlink="http://www.w3.org/1999/xlink" width="61" height="50"><defs/><g><path fill="rgb(241,48,61)" stroke="none" paint-order="stroke fill markers" fill-rule="evenodd" d=" M 29.71647834777832 10.469646871089935 C 28.784589529037476 9.5381538271904 29.71647834777832 10.469646871089935 29.71647834777832 10.469646871089935 M 28.468786239624023 16.55865514278412 C 28.468786239624023 16.55865514278412 33.57946729660034 16.55865514278412 33.57946729660034 16.55865514278412 C 33.57946729660034 16.55865514278412 33.4847137928009 27.588759899139404 33.4847137928009 27.588759899139404 C 33.4847137928009 28.919902503490448 33.78875112533569 30.21311604976654 34.39707612991333 31.469237208366394 C 35.00527596473694 32.72535836696625 35.95130896568298 33.74860626459122 37.23492479324341 34.538423120975494 C 38.51854062080383 35.32879775762558 40.11871075630188 35.72398507595062 42.03593587875366 35.72398507595062 C 42.03593587875366 35.72398507595062 46.23650765419006 35.72398507595062 46.23650765419006 35.72398507595062 C 46.23650765419006 35.72398507595062 46.23650765419006 28.661650240421295 46.23650765419006 28.661650240421295 C 46.23650765419006 28.661650240421295 43.566386461257935 28.661650240421295 43.566386461257935 28.661650240421295 C 42.43485188484192 28.661650240421295 41.23059368133545 28.104427754878998 41.23059368133545 26.9897038936615 C 41.23059368133545 26.9897038936615 41.24561405181885 16.55865514278412 41.24561405181885 16.55865514278412 C 41.24561405181885 16.55865514278412 46.31636595726013 16.55865514278412 46.31636595726013 16.55865514278412 C 46.31636595726013 16.55865514278412 37.416295766830444 1.4361165761947632 37.416295766830444 1.4361165761947632 C 37.416295766830444 1.4361165761947632 28.468786239624023 16.55865514278412 28.468786239624023 16.55865514278412 M 33.37982153892517 28.576867640018463 C 33.37982153892517 28.576867640018463 46.99516153335571 26.26096397638321 46.99516153335571 26.26096397638321 C 46.99516153335571 26.26096397638321 46.715657472610474 38.63866585493088 46.715657472610474 38.63866585493088 C 46.715657472610474 38.63866585493088 33.37982153892517 38.63866585493088 33.37982153892517 38.63866585493088 C 33.37982153892517 38.63866585493088 33.37982153892517 28.576867640018463 33.37982153892517 28.576867640018463 Z M 33.57946729660034 28.05785310268402 C 33.57946729660034 26.62631005048752 41.28554320335388 24.397141218185425 41.28554320335388 27.418915808200836 C 41.28554320335388 30.60049444437027 41.93029260635376 35.72370618581772 32.21236324310303 35.72370618581772 C 1.6812071800231934 35.72370618581772 33.57946729660034 29.48911726474762 33.57946729660034 28.05785310268402 M 41.280786752700806 16.553635120391846 C 41.280786752700806 16.553635120391846 59.43127727508545 19.463853657245636 59.43127727508545 19.463853657245636 C 59.43127727508545 19.463853657245636 54.73628497123718 48.74564427137375 54.73628497123718 48.74564427137375 C 54.73628497123718 48.74564427137375 36.58579444885254 45.83570462465286 36.58579444885254 45.83570462465286 C 36.58579444885254 45.83570462465286 41.280786752700806 16.553635120391846 41.280786752700806 16.553635120391846 Z M 33.551554441452026 16.553635120391846 C 33.551554441452026 16.553635120391846 15.400938749313354 19.463853657245636 15.400938749313354 19.463853657245636 C 15.400938749313354 19.463853657245636 20.09593105316162 48.74564427137375 20.09593105316162 48.74564427137375 C 20.09593105316162 48.74564427137375 38.246421575546265 45.83570462465286 38.246421575546265 45.83570462465286 C 38.246421575546265 45.83570462465286 33.551554441452026 16.553635120391846 33.551554441452026 16.553635120391846 Z"/></g></svg>