<svg version="1.1" xmlns="http://www.w3.org/2000/svg" xmlns:xlink="http://www.w3.org/1999/xlink" width="19" height="19"><defs/><g><path fill="rgb(255,255,255)" stroke="none" paint-order="stroke fill markers" fill-rule="evenodd" d=" M 16.999909162521362 8.999828338623047 C 16.999909162521362 8.999828338623047 14.999873399734497 8.999828338623047 14.999873399734497 8.999828338623047 C 14.447205543518066 8.999828338623047 13.999855518341064 9.44681692123413 13.999855518341064 9.999785423278809 C 13.999855518341064 10.552525520324707 14.447205543518066 10.99974250793457 14.999873399734497 10.99974250793457 C 14.999873399734497 10.99974250793457 16.999909162521362 10.99974250793457 16.999909162521362 10.99974250793457 C 17.552720308303833 10.99974250793457 17.999927043914795 10.552525520324707 17.999927043914795 9.999785423278809 C 17.999927043914795 9.44681692123413 17.552720308303833 8.999828338623047 16.999909162521362 8.999828338623047 Z M 14.427718162536621 6.865840435028076 C 14.427718162536621 6.865840435028076 16.160089015960693 5.8658833503723145 16.160089015960693 5.8658833503723145 C 16.638532876968384 5.589513301849365 16.80259943008423 4.977844715118408 16.525334119796753 4.49979305267334 C 16.249931573867798 4.021056175231934 15.638514995574951 3.8570613861083984 15.16007113456726 4.133203029632568 C 15.16007113456726 4.133203029632568 13.427700281143188 5.133616924285889 13.427700281143188 5.133616924285889 C 12.949113130569458 5.409986972808838 12.785046577453613 6.021198749542236 13.062311887741089 6.499250411987305 C 13.337714433670044 6.97821569442749 13.94913101196289 7.142438888549805 14.427718162536621 6.865840435028076 Z M 16.160089015960693 14.133459091186523 C 16.160089015960693 14.133459091186523 14.427718162536621 13.133502006530762 14.427718162536621 13.133502006530762 C 13.94913101196289 12.857131958007812 13.338860750198364 13.021126747131348 13.062311887741089 13.499635219573975 C 12.786049604415894 13.97837209701538 12.949113130569458 14.58958387374878 13.427700281143188 14.865953922271729 C 13.427700281143188 14.865953922271729 15.16007113456726 15.866367816925049 15.16007113456726 15.866367816925049 C 15.638514995574951 16.14228105545044 16.249931573867798 15.978286266326904 16.526337146759033 15.499777793884277 C 16.80259943008423 15.02149772644043 16.638532876968384 14.409829139709473 16.160089015960693 14.133459091186523 Z M 8.999909400939941 1.9996719360351562 C 8.999909400939941 1.9996719360351562 8.000034809112549 1.9996719360351562 8.000034809112549 1.9996719360351562 C 8.000034809112549 1.9996719360351562 4.999837875366211 1.9996719360351562 4.999837875366211 1.9996719360351562 C 4.8700175285339355 1.9996719360351562 4.74019718170166 2.026395320892334 4.618114471435547 2.0768728256225586 C 4.495028734207153 2.1275787353515625 4.383692741394043 2.2006683349609375 4.290984392166138 2.294999599456787 C 4.1912548542022705 2.3943557739257812 1.9999275207519531 4.999771595001221 1.9999275207519531 9.999785423278809 C 1.9999275207519531 14.999799251556396 4.07905912399292 17.421349048614502 4.167898654937744 17.554509162902832 C 4.196126699447632 17.59767770767212 4.233381986618042 17.631710052490234 4.266481876373291 17.668254852294922 C 4.282243728637695 17.68515682220459 4.2938501834869385 17.702972412109375 4.310471773147583 17.71804714202881 C 4.392433404922485 17.797532081604004 4.485141754150391 17.859201431274414 4.585874319076538 17.903968811035156 C 4.607224464416504 17.91584587097168 4.62972092628479 17.92178440093994 4.652360677719116 17.929550170898438 C 4.7635533809661865 17.97043466567993 4.879761219024658 17.99967050552368 4.99797511100769 17.99967050552368 C 4.99797511100769 17.99967050552368 4.999837875366211 17.99967050552368 4.999837875366211 17.99967050552368 C 4.999837875366211 17.99967050552368 8.000034809112549 17.99967050552368 8.000034809112549 17.99967050552368 C 8.000034809112549 17.99967050552368 8.999909400939941 17.99967050552368 8.999909400939941 17.99967050552368 C 9.552720546722412 17.99967050552368 9.999927282333374 17.55245351791382 9.999927282333374 16.99971342086792 C 9.999927282333374 16.99971342086792 9.999927282333374 12.999428272247314 9.999927282333374 12.999428272247314 C 9.999927282333374 12.447144985198975 9.552720546722412 11.999699592590332 8.999909400939941 11.999699592590332 C 8.999909400939941 11.999699592590332 8.000034809112549 11.999699592590332 8.000034809112549 11.999699592590332 C 8.000034809112549 11.999699592590332 8.000034809112549 7.999414443969727 8.000034809112549 7.999414443969727 C 8.000034809112549 7.999414443969727 8.999909400939941 7.999414443969727 8.999909400939941 7.999414443969727 C 9.552720546722412 7.999414443969727 9.999927282333374 7.552197456359863 9.999927282333374 6.999685764312744 C 9.999927282333374 6.999685764312744 9.999927282333374 2.999629020690918 9.999927282333374 2.999629020690918 C 9.999927282333374 2.4468889236450195 9.552720546722412 1.9996719360351562 8.999909400939941 1.9996719360351562 Z M 8.000034809112549 5.999728679656982 C 8.000034809112549 5.999728679656982 6.999873638153076 5.999728679656982 6.999873638153076 5.999728679656982 C 6.4472057819366455 5.999728679656982 5.9998557567596436 6.446945667266846 5.9998557567596436 6.999685764312744 C 5.9998557567596436 6.999685764312744 5.9998557567596436 12.999428272247314 5.9998557567596436 12.999428272247314 C 5.9998557567596436 13.552625179290771 6.4472057819366455 13.999613761901855 6.999873638153076 13.999613761901855 C 6.999873638153076 13.999613761901855 8.000034809112549 13.999613761901855 8.000034809112549 13.999613761901855 C 8.000034809112549 13.999613761901855 8.000034809112549 15.999756336212158 8.000034809112549 15.999756336212158 C 8.000034809112549 15.999756336212158 5.571133375167847 15.999756336212158 5.571133375167847 15.999756336212158 C 5.065321207046509 15.078827381134033 3.9999632835388184 13.999613761901855 3.9999632835388184 9.999785423278809 C 3.9999632835388184 5.999728679656982 4.998834848403931 4.624730587005615 5.469684362411499 3.999814510345459 C 5.469684362411499 3.999814510345459 8.000034809112549 3.999814510345459 8.000034809112549 3.999814510345459 C 8.000034809112549 3.999814510345459 8.000034809112549 5.999728679656982 8.000034809112549 5.999728679656982 Z"/></g></svg>