<svg xmlns="http://www.w3.org/2000/svg" width="56" height="64" viewBox="0 0 56 64">
  <metadata><?xpacket begin="﻿" id="W5M0MpCehiHzreSzNTczkc9d"?>
<x:xmpmeta xmlns:x="adobe:ns:meta/" x:xmptk="Adobe XMP Core 5.6-c138 79.159824, 2016/09/14-01:09:01        ">
   <rdf:RDF xmlns:rdf="http://www.w3.org/1999/02/22-rdf-syntax-ns#">
      <rdf:Description rdf:about=""/>
   </rdf:RDF>
</x:xmpmeta>
                                                                                                    
                                                                                                    
                                                                                                    
                                                                                                    
                                                                                                    
                                                                                                    
                                                                                                    
                                                                                                    
                                                                                                    
                                                                                                    
                                                                                                    
                                                                                                    
                                                                                                    
                                                                                                    
                                                                                                    
                                                                                                    
                                                                                                    
                                                                                                    
                                                                                                    
                                                                                                    
                           
<?xpacket end="w"?></metadata>
<defs>
    <style>
      .cls-1 {
        fill: #fff;
      }

      .cls-1, .cls-2, .cls-3 {
        fill-rule: evenodd;
      }

      .cls-3 {
        fill: #f1303d;
      }
    </style>
  </defs>
  <path id="Shape_1_copy" data-name="Shape 1 copy" class="cls-1" d="M1041.71,855.291l-14-14A0.992,0.992,0,0,0,1027,841H990a4,4,0,0,0-4,4v56a4,4,0,0,0,4,4h48a4,4,0,0,0,4-4V856A1,1,0,0,0,1041.71,855.291Z" transform="translate(-986 -841)"/>
  <path class="cls-2" d="M996,867a1,1,0,0,0,1,1h24a1,1,0,0,0,0-2H997A1,1,0,0,0,996,867Zm10,11h-9a1,1,0,0,0,0,2h9A1,1,0,0,0,1006,878Zm2,6H997a1,1,0,1,0,0,2h11A1,1,0,1,0,1008,884Zm-2,8h-9a1,1,0,0,0,0,2h9A1,1,0,0,0,1006,892Zm8-20H997a1,1,0,0,0,0,2h17A1,1,0,0,0,1014,872Zm-17-11h16a1,1,0,0,0,0-2H997A1,1,0,0,0,997,861Zm44.71-5.709-14-14A0.992,0.992,0,0,0,1027,841H990a4,4,0,0,0-4,4v56a4,4,0,0,0,4,4h48a4,4,0,0,0,4-4V856A1,1,0,0,0,1041.71,855.291ZM1028,844.414L1038.59,855H1028V844.414ZM1040,901a2,2,0,0,1-2,2H990a2,2,0,0,1-2-2V845a2,2,0,0,1,2-2h36v13a1,1,0,0,0,1,1h13v44Z" transform="translate(-986 -841)"/>
  <path id="Pencil_copy_2" data-name="Pencil copy 2" class="cls-3" d="M1038.45,871.829l-5.3-5.309a1.872,1.872,0,0,0-2.65,0s-20.94,20.951-21.22,21.234a1.173,1.173,0,0,0-.28.738v6.569a0.938,0.938,0,0,0,.94.938h6.56a1.008,1.008,0,0,0,.74-0.282c0.31-.319,21.21-21.235,21.21-21.235A1.881,1.881,0,0,0,1038.45,871.829Z" transform="translate(-986 -841)"/>
  <path id="Pencil" class="cls-1" d="M1039.41,871.242l-5.65-5.657a2,2,0,0,0-2.83,0s-22.33,22.326-22.63,22.628a1.243,1.243,0,0,0-.3.786v7a1,1,0,0,0,1,1h7a1.077,1.077,0,0,0,.79-0.3c0.33-.339,22.62-22.627,22.62-22.627A1.985,1.985,0,0,0,1039.41,871.242ZM1011,895l-1-1v-4.588l5.59,5.586H1011Zm6.04-1.379-5.66-5.656,13.89-13.893,5.66,5.657Zm15.3-15.306-5.65-5.657,1.41-1.415,5.66,5.658Zm4.95-4.95-2.12,2.121-5.66-5.657,2.13-2.121a0.993,0.993,0,0,1,1.41,0l4.24,4.243A1,1,0,0,1,1037.29,873.364Z" transform="translate(-986 -841)"/>
</svg>
