<svg xmlns="http://www.w3.org/2000/svg" width="16" height="16" viewBox="0 0 16 16">
  <metadata><?xpacket begin="﻿" id="W5M0MpCehiHzreSzNTczkc9d"?>
<x:xmpmeta xmlns:x="adobe:ns:meta/" x:xmptk="Adobe XMP Core 5.6-c138 79.159824, 2016/09/14-01:09:01        ">
   <rdf:RDF xmlns:rdf="http://www.w3.org/1999/02/22-rdf-syntax-ns#">
      <rdf:Description rdf:about=""/>
   </rdf:RDF>
</x:xmpmeta>
                                                                                                    
                                                                                                    
                                                                                                    
                                                                                                    
                                                                                                    
                                                                                                    
                                                                                                    
                                                                                                    
                                                                                                    
                                                                                                    
                                                                                                    
                                                                                                    
                                                                                                    
                                                                                                    
                                                                                                    
                                                                                                    
                                                                                                    
                                                                                                    
                                                                                                    
                                                                                                    
                           
<?xpacket end="w"?></metadata>
<defs>
    <style>
      .cls-1 {
        fill: #f1303d;
        fill-rule: evenodd;
      }
    </style>
  </defs>
  <path id="Target" class="cls-1" d="M1166,358a7.942,7.942,0,0,0-4.9,1.686l-1.35-1.354a1,1,0,1,0-1.42,1.414l1.36,1.353A7.991,7.991,0,1,0,1166,358Zm0,14a6,6,0,0,1-4.89-9.473l1.46,1.453A3.875,3.875,0,0,0,1162,366a4,4,0,1,0,4-4,3.936,3.936,0,0,0-2.02.566l-1.45-1.453A6,6,0,1,1,1166,372Zm-0.71-5.293a1,1,0,1,0,1.42-1.415l-1.22-1.218A1.957,1.957,0,0,1,1166,364a2,2,0,1,1-2,2,2.151,2.151,0,0,1,.07-0.512Z" transform="translate(-1158 -358)"/>
</svg>
