<svg version="1.1" xmlns="http://www.w3.org/2000/svg" xmlns:xlink="http://www.w3.org/1999/xlink" width="67" height="67"><defs/><g><path fill="rgb(0,0,0)" stroke="none" paint-order="stroke fill markers" fill-rule="evenodd" d=" M 65.99989795684814 29.99997079372406 C 65.99989795684814 26.685640454292297 63.313379526138306 23.99992847442627 60.00001096725464 23.99992847442627 C 60.00001096725464 23.99992847442627 42.99995565414429 23.99992847442627 42.99995565414429 23.99992847442627 C 42.99995565414429 23.99992847442627 42.99995565414429 23.99992847442627 42.99995565414429 23.99992847442627 C 42.99995565414429 23.99992847442627 42.98430943489075 23.99992847442627 42.98430943489075 23.99992847442627 C 42.98430943489075 23.99992847442627 42.99995565414429 23.99992847442627 42.99995565414429 23.99992847442627 C 42.99995565414429 23.99992847442627 44.99991798400879 6.000080406665802 44.99991798400879 6.000080406665802 C 45.208951473236084 3.8124662041664124 43.71279740333557 1.9999592304229736 41.50192403793335 1.9999592304229736 C 41.50192403793335 1.9999592304229736 37.50099802017212 1.9999592304229736 37.50099802017212 1.9999592304229736 C 34.99998116493225 1.9999592304229736 33.95894432067871 3.7499948143959045 33.00001883506775 6.000080406665802 C 33.00001883506775 6.000080406665802 25.000044345855713 23.99992847442627 25.000044345855713 23.99992847442627 C 22.844621181488037 29.168878197669983 20.00001335144043 29.99997079372406 17.9999258518219 29.99997079372406 C 16.99994468688965 29.99997079372406 15.999963521957397 29.99997079372406 15.999963521957397 29.99997079372406 C 15.999963521957397 29.99997079372406 15.999963521957397 27.999770760536194 15.999963521957397 27.999770760536194 C 15.999963521957397 25.788172006607056 14.210912227630615 23.99992847442627 11.999913692474365 23.99992847442627 C 11.999913692474365 23.99992847442627 5.999901533126831 23.99992847442627 5.999901533126831 23.99992847442627 C 3.7890281677246094 23.99992847442627 1.9999768733978271 25.788172006607056 1.9999768733978271 27.999770760536194 C 1.9999768733978271 27.999770760536194 1.9999768733978271 61.99982464313507 1.9999768733978271 61.99982464313507 C 1.9999768733978271 64.21002894639969 3.7890281677246094 65.999666929245 5.999901533126831 65.999666929245 C 5.999901533126831 65.999666929245 11.999913692474365 65.999666929245 11.999913692474365 65.999666929245 C 14.210912227630615 65.999666929245 15.999963521957397 64.21002894639969 15.999963521957397 61.99982464313507 C 15.999963521957397 61.99982464313507 15.999963521957397 59.999624609947205 15.999963521957397 59.999624609947205 C 16.99994468688965 59.999624609947205 19.63176393508911 60.05177706480026 22.210010528564453 62.69732886552811 C 25.324234008789062 65.89340978860855 29.04290223121643 65.999666929245 30.99993133544922 65.999666929245 C 30.99993133544922 65.999666929245 53.999998807907104 65.999666929245 53.999998807907104 65.999666929245 C 57.3134925365448 65.999666929245 60.00001096725464 63.31256049871445 60.00001096725464 59.999624609947205 C 60.00001096725464 58.268274664878845 59.262635946273804 56.71178883314133 58.08979535102844 55.61714506149292 C 60.37101411819458 54.76848238706589 61.99997329711914 52.57668483257294 61.99997329711914 50.000018894672394 C 61.99997329711914 48.26839005947113 61.262598276138306 46.71190422773361 60.089757680892944 45.617260456085205 C 62.37110161781311 44.76859778165817 63.99993562698364 42.577079117298126 63.99993562698364 39.999855399131775 C 63.99993562698364 38.268505454063416 63.262685775756836 36.71174073219299 62.089720010757446 35.617096960544586 C 64.37106394767761 34.768434286117554 65.99989795684814 32.57691562175751 65.99989795684814 29.99997079372406 Z M 13.999876022338867 61.99982464313507 C 13.999876022338867 63.10339289903641 13.104536771774292 63.99974578619003 11.999913692474365 63.99974578619003 C 11.999913692474365 63.99974578619003 5.999901533126831 63.99974578619003 5.999901533126831 63.99974578619003 C 4.895403623580933 63.99974578619003 3.999939203262329 63.10339289903641 3.999939203262329 61.99982464313507 C 3.999939203262329 61.99982464313507 3.999939203262329 27.999770760536194 3.999939203262329 27.999770760536194 C 3.999939203262329 26.894529163837433 4.895403623580933 25.99984961748123 5.999901533126831 25.99984961748123 C 5.999901533126831 25.99984961748123 11.999913692474365 25.99984961748123 11.999913692474365 25.99984961748123 C 13.104536771774292 25.99984961748123 13.999876022338867 26.894529163837433 13.999876022338867 27.999770760536194 C 13.999876022338867 27.999770760536194 13.999876022338867 61.99982464313507 13.999876022338867 61.99982464313507 Z M 60.00001096725464 33.999813079833984 C 60.00001096725464 33.999813079833984 49.99994897842407 33.999813079833984 49.99994897842407 33.999813079833984 C 49.44732451438904 33.999813079833984 48.99996781349182 34.44631618261337 48.99996781349182 34.99991309642792 C 48.99996781349182 35.551557779312134 49.44732451438904 35.99973422288895 49.99994897842407 35.99973422288895 C 49.99994897842407 35.99973422288895 57.99992346763611 35.99973422288895 57.99992346763611 35.99973422288895 C 60.209044456481934 35.99973422288895 61.99997329711914 37.78992998600006 61.99997329711914 39.999855399131775 C 61.99997329711914 42.20894414186478 60.209044456481934 43.9996976852417 57.99992346763611 43.9996976852417 C 57.99992346763611 43.9996976852417 47.99998664855957 43.9996976852417 47.99998664855957 43.9996976852417 C 47.44723701477051 43.9996976852417 46.99988031387329 44.44620078802109 46.99988031387329 44.99979770183563 C 46.99988031387329 45.55172127485275 47.44723701477051 45.999897718429565 47.99998664855957 45.999897718429565 C 47.99998664855957 45.999897718429565 55.999961137771606 45.999897718429565 55.999961137771606 45.999897718429565 C 58.2089569568634 45.999897718429565 60.00001096725464 47.789814591407776 60.00001096725464 50.000018894672394 C 60.00001096725464 52.209107637405396 58.2089569568634 54.00014007091522 55.999961137771606 54.00014007091522 C 55.999961137771606 54.00014007091522 45.99989914894104 54.00014007091522 45.99989914894104 54.00014007091522 C 45.447274684906006 54.00014007091522 44.99991798400879 54.44636428356171 44.99991798400879 54.99996119737625 C 44.99991798400879 55.55160588026047 45.447274684906006 56.000061213970184 45.99989914894104 56.000061213970184 C 45.99989914894104 56.000061213970184 53.999998807907104 56.000061213970184 53.999998807907104 56.000061213970184 C 56.2089946269989 56.000061213970184 57.99992346763611 57.789978086948395 57.99992346763611 59.999624609947205 C 57.99992346763611 62.208713352680206 56.2089946269989 63.99974578619003 53.999998807907104 63.99974578619003 C 53.999998807907104 63.99974578619003 30.99993133544922 63.99974578619003 30.99993133544922 63.99974578619003 C 29.999950170516968 63.99974578619003 26.304688692092896 64.03404927253723 23.641577005386353 61.30064707994461 C 20.53210997581482 58.10902839899063 18.112203121185303 58.00277125835419 15.999963521957397 57.99998235702515 C 15.999963521957397 57.99998235702515 15.999963521957397 31.999891936779022 15.999963521957397 31.999891936779022 C 15.999963521957397 31.999891936779022 17.9999258518219 31.999891936779022 17.9999258518219 31.999891936779022 C 21.99997568130493 31.999891936779022 24.57021141052246 30.428346037864685 27.24997067451477 23.99992847442627 C 27.24997067451477 23.99992847442627 34.99998116493225 6.000080406665802 34.99998116493225 6.000080406665802 C 35.52143836021423 4.895396590232849 36.14641094207764 3.999880373477936 37.250908851623535 3.999880373477936 C 37.250908851623535 3.999880373477936 40.99986815452576 3.999880373477936 40.99986815452576 3.999880373477936 C 42.104491233825684 3.999880373477936 43.126001596450806 4.8340407609939575 42.99995565414429 6.000080406665802 C 42.99995565414429 6.000080406665802 41.009756565093994 23.99992847442627 41.009756565093994 23.99992847442627 C 40.877827644348145 25.672711491584778 41.92374610900879 25.99984961748123 42.99995565414429 25.99984961748123 C 42.99995565414429 25.99984961748123 60.00001096725464 25.99984961748123 60.00001096725464 25.99984961748123 C 62.209006786346436 25.99984961748123 63.99993562698364 27.790045380592346 63.99993562698364 29.99997079372406 C 63.99993562698364 32.20878064632416 62.209006786346436 33.999813079833984 60.00001096725464 33.999813079833984 Z"/></g></svg>